<?xml version="1.0" encoding="UTF-8" standalone="no"?>
<!-- Created with Inkscape (http://www.inkscape.org/) -->

<svg
   version="1.1"
   id="svg2"
   width="1432.92"
   height="594.18933"
   viewBox="0 0 1432.92 594.18933"
   sodipodi:docname="Black background CMYK.ai"
   xmlns:inkscape="http://www.inkscape.org/namespaces/inkscape"
   xmlns:sodipodi="http://sodipodi.sourceforge.net/DTD/sodipodi-0.dtd"
   xmlns="http://www.w3.org/2000/svg"
   xmlns:svg="http://www.w3.org/2000/svg">
  <defs
     id="defs6">
    <clipPath
       clipPathUnits="userSpaceOnUse"
       id="clipPath18">
      <path
         d="M 0,445.642 H 1074.695 V 0 H 0 Z"
         id="path16" />
    </clipPath>
  </defs>
  <sodipodi:namedview
     id="namedview4"
     pagecolor="#ffffff"
     bordercolor="#000000"
     borderopacity="0.25"
     inkscape:showpageshadow="2"
     inkscape:pageopacity="0.0"
     inkscape:pagecheckerboard="0"
     inkscape:deskcolor="#d1d1d1" />
  <g
     id="g8"
     inkscape:groupmode="layer"
     inkscape:label="Black background CMYK"
     transform="matrix(1.3333333,0,0,-1.3333333,0,594.18933)">
    <path
       d="M 1.21,0 H 1074.694 V 445.642 H 1.21 Z"
       style="fill:#282828;fill-opacity:1;fill-rule:nonzero;stroke:none"
       id="path10" />
    <g
       id="g12">
      <g
         id="g14"
         clip-path="url(#clipPath18)">
        <path
           d="M 1077.805,0 H 1.21 v 445.642 h 1076.595 z"
           style="fill:none;stroke:#1d1d1b;stroke-width:1;stroke-linecap:butt;stroke-linejoin:miter;stroke-miterlimit:10;stroke-dasharray:none;stroke-opacity:1"
           id="path20" />
        <g
           id="g22"
           transform="translate(416.4375,172.9938)">
          <path
             d="m 0,0 c 0,-0.901 0.063,-1.639 0.19,-2.212 0.126,-0.573 0.305,-1.024 0.534,-1.352 0.229,-0.328 0.504,-0.554 0.824,-0.676 0.321,-0.123 0.67,-0.184 1.05,-0.184 0.601,0 1.093,0.13 1.477,0.391 0.383,0.261 0.688,0.606 0.913,1.033 0.225,0.427 0.381,0.911 0.468,1.452 0.087,0.542 0.131,1.094 0.131,1.655 0,0.807 -0.074,1.488 -0.22,2.046 C 5.221,2.71 5.017,3.159 4.756,3.499 4.496,3.839 4.185,4.084 3.825,4.235 3.465,4.385 3.072,4.46 2.645,4.46 2.266,4.46 1.914,4.401 1.589,4.282 1.265,4.163 0.985,3.94 0.748,3.612 0.51,3.283 0.327,2.831 0.196,2.254 0.066,1.676 0,0.925 0,0 M 7.722,-4.08 H 9.501 V -5.029 H 5.587 v 1.436 H 5.539 C 5.334,-3.934 5.11,-4.216 4.869,-4.442 4.628,-4.667 4.373,-4.849 4.104,-4.988 3.835,-5.126 3.555,-5.222 3.262,-5.278 2.969,-5.333 2.673,-5.361 2.372,-5.361 c -0.751,0 -1.419,0.14 -2.004,0.421 -0.585,0.281 -1.08,0.66 -1.483,1.138 -0.403,0.479 -0.71,1.039 -0.919,1.679 -0.21,0.641 -0.314,1.324 -0.314,2.052 0,0.759 0.115,1.472 0.344,2.141 0.229,0.668 0.555,1.247 0.979,1.738 0.422,0.49 0.928,0.877 1.518,1.162 0.588,0.285 1.243,0.427 1.962,0.427 0.696,0 1.305,-0.145 1.827,-0.433 C 4.804,4.675 5.223,4.27 5.539,3.748 h 0.048 v 7.508 H 3.689 v 0.949 h 4.033 z"
             style="fill:#ffffff;fill-opacity:1;fill-rule:nonzero;stroke:none"
             id="path24" />
        </g>
        <g
           id="g26"
           transform="translate(440.6918,174.3459)">
          <path
             d="M 0,0 C -0.024,0.656 -0.093,1.188 -0.207,1.595 -0.322,2.002 -0.474,2.321 -0.664,2.55 -0.854,2.78 -1.078,2.935 -1.335,3.019 -1.592,3.101 -1.874,3.143 -2.182,3.143 -2.507,3.143 -2.809,3.096 -3.09,3.001 -3.371,2.906 -3.621,2.74 -3.843,2.503 -4.064,2.266 -4.249,1.945 -4.395,1.542 -4.541,1.139 -4.642,0.625 -4.697,0 Z M 2.241,-3.167 C 1.988,-4.313 1.498,-5.191 0.771,-5.8 0.043,-6.408 -0.901,-6.713 -2.064,-6.713 c -0.798,0 -1.51,0.14 -2.135,0.421 -0.624,0.281 -1.154,0.662 -1.589,1.144 -0.435,0.483 -0.767,1.046 -0.996,1.691 -0.23,0.644 -0.345,1.33 -0.345,2.057 0,0.744 0.119,1.447 0.356,2.112 0.237,0.664 0.576,1.241 1.015,1.731 0.438,0.491 0.964,0.88 1.577,1.169 0.612,0.288 1.299,0.433 2.058,0.433 0.695,0 1.32,-0.123 1.874,-0.368 C 0.304,3.432 0.775,3.09 1.162,2.651 1.55,2.212 1.848,1.688 2.058,1.08 2.267,0.471 2.38,-0.198 2.396,-0.925 H -4.756 C -4.764,-1.06 -4.768,-1.148 -4.768,-1.192 v -0.077 c 0,-0.933 0.069,-1.692 0.207,-2.277 0.138,-0.585 0.332,-1.042 0.582,-1.37 0.249,-0.328 0.545,-0.551 0.889,-0.67 0.344,-0.119 0.726,-0.178 1.145,-0.178 0.387,0 0.753,0.051 1.097,0.154 0.344,0.103 0.654,0.267 0.931,0.492 0.276,0.225 0.52,0.518 0.73,0.878 0.209,0.359 0.377,0.792 0.503,1.299 0.158,-0.016 0.317,-0.044 0.475,-0.083 0.158,-0.04 0.308,-0.087 0.45,-0.143"
             style="fill:#ffffff;fill-opacity:1;fill-rule:nonzero;stroke:none"
             id="path28" />
        </g>
        <g
           id="g30"
           transform="translate(458.4938,170.337)">
          <path
             d="m 0,0 c -0.214,-0.925 -0.566,-1.607 -1.056,-2.046 -0.49,-0.439 -1.166,-0.658 -2.028,-0.658 -0.451,0 -0.856,0.055 -1.216,0.166 -0.36,0.111 -0.666,0.286 -0.919,0.528 -0.253,0.241 -0.447,0.549 -0.581,0.925 -0.135,0.375 -0.202,0.832 -0.202,1.37 v 6.499 h -1.779 v 0.949 h 1.779 v 2.301 l 2.135,0.356 V 7.733 h 3.084 V 6.784 h -3.084 v -6.76 c 0,-0.324 0.03,-0.589 0.089,-0.795 0.059,-0.205 0.144,-0.368 0.255,-0.486 0.111,-0.119 0.242,-0.2 0.392,-0.244 0.15,-0.043 0.32,-0.065 0.509,-0.065 0.254,0 0.471,0.038 0.653,0.113 0.182,0.075 0.342,0.19 0.48,0.344 0.139,0.154 0.257,0.346 0.356,0.576 0.099,0.229 0.192,0.493 0.279,0.794 0.15,-0.024 0.296,-0.055 0.439,-0.095 C -0.273,0.127 -0.134,0.071 0,0"
             style="fill:#ffffff;fill-opacity:1;fill-rule:nonzero;stroke:none"
             id="path32" />
        </g>
        <g
           id="g34"
           transform="translate(472.1677,172.8514)">
          <path
             d="m 0,0 c -0.862,-0.024 -1.558,-0.089 -2.087,-0.196 -0.53,-0.106 -0.941,-0.257 -1.234,-0.451 -0.293,-0.193 -0.49,-0.428 -0.593,-0.705 -0.103,-0.277 -0.154,-0.593 -0.154,-0.949 0,-0.617 0.128,-1.077 0.385,-1.382 0.257,-0.304 0.611,-0.456 1.062,-0.456 0.245,0 0.519,0.051 0.824,0.154 0.304,0.103 0.591,0.27 0.86,0.504 0.269,0.233 0.492,0.54 0.67,0.919 C -0.089,-2.182 0,-1.712 0,-1.15 Z M 3.808,-4.887 C 3.475,-4.95 3.167,-4.989 2.882,-5.005 2.598,-5.021 2.372,-5.029 2.206,-5.029 c -0.419,0 -0.765,0.034 -1.038,0.101 -0.273,0.067 -0.488,0.164 -0.646,0.291 -0.158,0.126 -0.273,0.28 -0.344,0.462 -0.071,0.182 -0.115,0.384 -0.131,0.605 h -0.059 c -0.221,-0.308 -0.458,-0.569 -0.711,-0.783 -0.253,-0.213 -0.518,-0.383 -0.795,-0.51 -0.277,-0.126 -0.56,-0.217 -0.848,-0.272 -0.289,-0.056 -0.579,-0.084 -0.872,-0.084 -0.482,0 -0.913,0.065 -1.293,0.196 -0.379,0.13 -0.699,0.315 -0.96,0.552 -0.261,0.237 -0.459,0.519 -0.593,0.848 -0.135,0.328 -0.202,0.689 -0.202,1.085 0,1.099 0.539,1.935 1.619,2.508 1.079,0.574 2.635,0.88 4.667,0.92 0.008,0.356 0.014,0.676 0.018,0.96 0.004,0.285 0.006,0.566 0.006,0.843 0,0.719 -0.149,1.223 -0.445,1.512 -0.297,0.288 -0.765,0.433 -1.406,0.433 -0.427,0 -0.808,-0.048 -1.144,-0.142 -0.336,-0.095 -0.611,-0.222 -0.824,-0.38 0.189,-0.182 0.33,-0.374 0.42,-0.575 0.092,-0.202 0.137,-0.402 0.137,-0.6 0,-0.332 -0.107,-0.608 -0.32,-0.83 -0.214,-0.221 -0.506,-0.332 -0.878,-0.332 -0.158,0 -0.312,0.024 -0.462,0.071 -0.15,0.048 -0.281,0.123 -0.392,0.226 -0.111,0.103 -0.199,0.231 -0.267,0.385 -0.067,0.154 -0.1,0.334 -0.1,0.54 0,0.324 0.089,0.638 0.266,0.943 0.178,0.304 0.443,0.575 0.795,0.812 0.352,0.238 0.791,0.427 1.316,0.57 0.526,0.142 1.141,0.213 1.845,0.213 0.569,0 1.073,-0.055 1.512,-0.166 C 0.516,5.263 0.887,5.078 1.192,4.822 1.496,4.564 1.726,4.222 1.88,3.795 2.034,3.368 2.111,2.839 2.111,2.206 2.111,2.048 2.109,1.789 2.105,1.429 2.101,1.069 2.095,0.672 2.087,0.237 2.08,-0.198 2.073,-0.639 2.07,-1.085 2.066,-1.532 2.064,-1.925 2.064,-2.265 c 0,-0.348 0.008,-0.639 0.023,-0.872 0.016,-0.233 0.056,-0.419 0.119,-0.557 0.063,-0.139 0.158,-0.238 0.285,-0.297 0.126,-0.059 0.304,-0.089 0.534,-0.089 0.197,0 0.458,0.024 0.783,0.071 z"
             style="fill:#ffffff;fill-opacity:1;fill-rule:nonzero;stroke:none"
             id="path36" />
        </g>
        <g
           id="g38"
           transform="translate(486.032,181.4149)">
          <path
             d="m 0,0 c -0.206,0 -0.394,0.033 -0.564,0.101 -0.17,0.067 -0.32,0.164 -0.451,0.291 -0.13,0.126 -0.231,0.274 -0.302,0.444 -0.071,0.17 -0.106,0.362 -0.106,0.576 0,0.205 0.037,0.395 0.112,0.569 0.075,0.174 0.176,0.324 0.303,0.451 0.126,0.126 0.276,0.225 0.45,0.296 0.174,0.071 0.36,0.107 0.558,0.107 0.198,0 0.383,-0.034 0.557,-0.101 C 0.731,2.667 0.883,2.57 1.014,2.443 1.144,2.317 1.245,2.168 1.316,1.999 1.387,1.828 1.423,1.637 1.423,1.423 1.423,1.21 1.386,1.016 1.31,0.842 1.235,0.668 1.134,0.52 1.008,0.397 0.881,0.275 0.731,0.178 0.557,0.107 0.383,0.036 0.198,0 0,0 m 1.067,-12.501 h 1.78 v -0.949 h -5.694 v 0.949 h 1.78 v 8.207 h -1.78 v 0.949 h 3.914 z"
             style="fill:#ffffff;fill-opacity:1;fill-rule:nonzero;stroke:none"
             id="path40" />
        </g>
        <g
           id="g42"
           transform="translate(500.0027,168.9137)">
          <path
             d="M 0,0 H 1.779 V -0.949 H -3.914 V 0 h 1.779 v 15.336 h -1.779 v 0.949 H 0 Z"
             style="fill:#ffffff;fill-opacity:1;fill-rule:nonzero;stroke:none"
             id="path44" />
        </g>
        <g
           id="g46"
           transform="translate(511.8981,181.4149)">
          <path
             d="m 0,0 c -0.206,0 -0.394,0.033 -0.564,0.101 -0.17,0.067 -0.32,0.164 -0.451,0.291 -0.13,0.126 -0.231,0.274 -0.302,0.444 -0.071,0.17 -0.106,0.362 -0.106,0.576 0,0.205 0.037,0.395 0.112,0.569 0.075,0.174 0.176,0.324 0.303,0.451 0.126,0.126 0.276,0.225 0.45,0.296 0.174,0.071 0.36,0.107 0.558,0.107 0.198,0 0.383,-0.034 0.557,-0.101 C 0.731,2.667 0.883,2.57 1.014,2.443 1.144,2.317 1.245,2.168 1.316,1.999 1.387,1.828 1.423,1.637 1.423,1.423 1.423,1.21 1.386,1.016 1.31,0.842 1.235,0.668 1.134,0.52 1.008,0.397 0.881,0.275 0.731,0.178 0.557,0.107 0.383,0.036 0.198,0 0,0 m 1.068,-12.501 h 1.779 v -0.949 h -5.694 v 0.949 h 1.78 v 8.207 h -1.78 v 0.949 h 3.915 z"
             style="fill:#ffffff;fill-opacity:1;fill-rule:nonzero;stroke:none"
             id="path48" />
        </g>
        <g
           id="g50"
           transform="translate(525.9278,168.9137)">
          <path
             d="M 0,0 H 1.602 V -0.949 H -3.914 V 0 h 1.779 V 8.208 H -3.914 V 9.156 H 0 V 7.437 h 0.047 c 0.325,0.656 0.76,1.16 1.305,1.512 0.546,0.352 1.249,0.528 2.111,0.528 1.084,0 1.89,-0.279 2.42,-0.836 0.53,-0.558 0.795,-1.354 0.795,-2.39 V 0 H 8.397 V -0.949 H 2.941 V 0 H 4.543 V 6.583 C 4.543,7.208 4.396,7.668 4.104,7.964 3.811,8.261 3.4,8.41 2.87,8.41 2.467,8.41 2.092,8.324 1.744,8.154 1.396,7.984 1.093,7.722 0.836,7.366 0.579,7.01 0.376,6.555 0.226,6.002 0.075,5.448 0,4.792 0,4.033 Z"
             style="fill:#ffffff;fill-opacity:1;fill-rule:nonzero;stroke:none"
             id="path52" />
        </g>
        <g
           id="g54"
           transform="translate(548.4741,174.4767)">
          <path
             d="M 0,0 C 0,0.561 -0.03,1.038 -0.089,1.429 -0.148,1.82 -0.251,2.137 -0.397,2.378 -0.544,2.619 -0.741,2.795 -0.99,2.906 -1.24,3.016 -1.558,3.072 -1.945,3.072 -2.333,3.072 -2.653,3.016 -2.906,2.906 -3.159,2.795 -3.362,2.615 -3.517,2.366 -3.671,2.117 -3.78,1.791 -3.843,1.387 -3.906,0.984 -3.938,0.494 -3.938,-0.083 c 0,-0.57 0.03,-1.05 0.089,-1.441 0.06,-0.392 0.164,-0.71 0.315,-0.955 0.15,-0.245 0.349,-0.421 0.599,-0.528 0.248,-0.107 0.563,-0.16 0.942,-0.16 0.388,0 0.71,0.055 0.967,0.166 0.257,0.111 0.46,0.293 0.611,0.546 0.15,0.253 0.257,0.579 0.32,0.978 C -0.032,-1.078 0,-0.585 0,0 m -4.934,-9.074 c -0.134,-0.221 -0.234,-0.435 -0.297,-0.64 -0.063,-0.206 -0.095,-0.407 -0.095,-0.605 0,-0.316 0.079,-0.597 0.237,-0.842 0.159,-0.245 0.38,-0.451 0.665,-0.617 0.284,-0.166 0.622,-0.291 1.014,-0.373 0.391,-0.084 0.82,-0.125 1.287,-0.125 0.64,0 1.211,0.075 1.714,0.226 0.501,0.15 0.927,0.359 1.275,0.628 0.347,0.269 0.613,0.581 0.795,0.937 0.181,0.356 0.272,0.743 0.272,1.162 0,0.34 -0.061,0.617 -0.184,0.831 -0.123,0.213 -0.294,0.379 -0.515,0.498 -0.222,0.118 -0.485,0.199 -0.789,0.243 -0.305,0.043 -0.639,0.065 -1.003,0.065 -0.261,0 -0.553,-0.002 -0.877,-0.006 -0.325,-0.003 -0.637,-0.01 -0.937,-0.017 -0.301,-0.008 -0.569,-0.014 -0.807,-0.019 -0.237,-0.003 -0.403,-0.005 -0.498,-0.005 -0.451,0 -0.84,0.055 -1.168,0.166 -0.329,0.111 -0.603,0.264 -0.824,0.462 -0.222,0.198 -0.386,0.431 -0.492,0.7 -0.108,0.269 -0.161,0.557 -0.161,0.866 0,0.427 0.095,0.87 0.285,1.328 0.189,0.459 0.498,0.925 0.925,1.4 -0.332,0.356 -0.585,0.765 -0.759,1.227 -0.174,0.463 -0.261,0.955 -0.261,1.477 0,0.546 0.095,1.061 0.284,1.548 0.19,0.486 0.465,0.913 0.825,1.281 0.36,0.367 0.802,0.658 1.329,0.871 0.525,0.214 1.124,0.321 1.796,0.321 0.617,0 1.166,-0.091 1.649,-0.273 C 0.233,3.459 0.648,3.21 0.996,2.894 1.218,3.123 1.433,3.313 1.643,3.463 1.852,3.614 2.048,3.73 2.23,3.813 c 0.182,0.083 0.351,0.141 0.51,0.172 0.158,0.032 0.3,0.048 0.427,0.048 0.197,0 0.367,-0.03 0.51,-0.09 C 3.819,3.884 3.935,3.805 4.027,3.706 4.117,3.607 4.185,3.497 4.229,3.374 4.272,3.252 4.294,3.127 4.294,3 4.294,2.747 4.212,2.52 4.05,2.319 3.888,2.117 3.661,2.016 3.368,2.016 3.139,2.016 2.924,2.091 2.722,2.241 2.521,2.392 2.388,2.613 2.325,2.906 2.167,2.842 2.018,2.765 1.88,2.674 1.741,2.583 1.605,2.479 1.471,2.36 1.708,2.028 1.887,1.664 2.01,1.269 2.133,0.873 2.194,0.459 2.194,0.024 2.194,-0.522 2.099,-1.04 1.909,-1.53 1.719,-2.021 1.443,-2.449 1.079,-2.817 0.715,-3.185 0.272,-3.475 -0.249,-3.689 c -0.522,-0.213 -1.119,-0.32 -1.791,-0.32 -0.474,0 -0.909,0.055 -1.305,0.166 -0.395,0.111 -0.751,0.265 -1.067,0.462 -0.198,-0.261 -0.35,-0.507 -0.457,-0.741 -0.106,-0.233 -0.16,-0.453 -0.16,-0.658 0,-0.253 0.113,-0.462 0.338,-0.628 0.225,-0.167 0.611,-0.25 1.157,-0.25 0.086,0 0.267,0.002 0.539,0.006 0.273,0.004 0.575,0.008 0.908,0.012 0.332,0.004 0.658,0.008 0.978,0.012 0.32,0.004 0.567,0.006 0.741,0.006 0.561,0 1.077,-0.05 1.548,-0.148 0.47,-0.1 0.873,-0.267 1.21,-0.505 0.336,-0.237 0.599,-0.549 0.789,-0.936 0.189,-0.388 0.284,-0.87 0.284,-1.447 0,-0.704 -0.142,-1.337 -0.427,-1.898 -0.284,-0.561 -0.682,-1.04 -1.192,-1.436 -0.51,-0.395 -1.115,-0.697 -1.814,-0.907 -0.7,-0.209 -1.465,-0.314 -2.296,-0.314 -0.727,0 -1.369,0.077 -1.927,0.231 -0.557,0.154 -1.026,0.358 -1.405,0.611 -0.38,0.253 -0.669,0.544 -0.866,0.872 -0.198,0.328 -0.297,0.67 -0.297,1.026 0,0.34 0.089,0.668 0.267,0.984 0.178,0.317 0.449,0.613 0.812,0.89 0.151,-0.064 0.281,-0.132 0.392,-0.208 0.111,-0.075 0.229,-0.164 0.356,-0.267"
             style="fill:#ffffff;fill-opacity:1;fill-rule:nonzero;stroke:none"
             id="path56" />
        </g>
        <g
           id="g58"
           transform="translate(578.9422,174.7139)">
          <path
             d="M 0,0 C -0.04,0.514 -0.125,0.949 -0.255,1.305 -0.386,1.661 -0.561,1.949 -0.783,2.17 -1.004,2.392 -1.271,2.552 -1.583,2.651 -1.896,2.749 -2.254,2.799 -2.657,2.799 -2.965,2.799 -3.25,2.769 -3.511,2.71 -3.772,2.651 -3.997,2.559 -4.187,2.437 -4.377,2.314 -4.525,2.154 -4.632,1.957 -4.738,1.759 -4.792,1.522 -4.792,1.245 c 0,-0.277 0.05,-0.504 0.149,-0.682 0.098,-0.178 0.261,-0.336 0.486,-0.474 0.225,-0.139 0.514,-0.271 0.866,-0.397 0.351,-0.127 0.784,-0.277 1.298,-0.451 0.412,-0.142 0.818,-0.293 1.222,-0.451 0.403,-0.158 0.765,-0.356 1.085,-0.593 0.32,-0.237 0.579,-0.524 0.777,-0.86 0.198,-0.336 0.296,-0.745 0.296,-1.227 0,-0.546 -0.122,-1.02 -0.367,-1.424 -0.245,-0.403 -0.569,-0.735 -0.973,-0.996 -0.403,-0.261 -0.861,-0.455 -1.375,-0.581 -0.514,-0.127 -1.041,-0.19 -1.578,-0.19 -0.285,0 -0.587,0.016 -0.907,0.047 -0.321,0.032 -0.637,0.076 -0.949,0.131 -0.313,0.055 -0.609,0.12 -0.89,0.195 -0.281,0.076 -0.528,0.153 -0.741,0.232 l -0.083,3.44 h 0.818 c 0.04,-0.601 0.125,-1.106 0.256,-1.513 0.13,-0.407 0.312,-0.733 0.545,-0.978 0.233,-0.245 0.518,-0.419 0.854,-0.522 0.336,-0.103 0.729,-0.154 1.18,-0.154 0.34,0 0.654,0.029 0.943,0.088 0.288,0.06 0.539,0.155 0.753,0.285 0.213,0.131 0.381,0.303 0.504,0.516 0.122,0.214 0.184,0.471 0.184,0.771 0,0.261 -0.048,0.476 -0.142,0.647 -0.095,0.169 -0.246,0.322 -0.451,0.456 -0.206,0.135 -0.47,0.261 -0.795,0.38 -0.324,0.119 -0.711,0.257 -1.162,0.415 -0.451,0.158 -0.884,0.322 -1.299,0.492 -0.415,0.17 -0.78,0.376 -1.097,0.617 -0.316,0.241 -0.569,0.532 -0.759,0.872 -0.19,0.34 -0.285,0.755 -0.285,1.245 0,0.538 0.111,1.002 0.333,1.393 0.221,0.392 0.515,0.714 0.883,0.967 0.368,0.253 0.79,0.439 1.269,0.558 0.478,0.118 0.975,0.178 1.488,0.178 0.261,0 0.535,-0.014 0.819,-0.042 C -1.352,3.607 -1.07,3.57 -0.789,3.522 -0.508,3.475 -0.24,3.421 0.018,3.362 0.274,3.303 0.51,3.246 0.723,3.19 L 0.807,0 Z"
             style="fill:#ffffff;fill-opacity:1;fill-rule:nonzero;stroke:none"
             id="path60" />
        </g>
        <g
           id="g62"
           transform="translate(595.4389,170.337)">
          <path
             d="m 0,0 c -0.214,-0.925 -0.565,-1.607 -1.055,-2.046 -0.491,-0.439 -1.167,-0.658 -2.029,-0.658 -0.45,0 -0.856,0.055 -1.215,0.166 -0.36,0.111 -0.667,0.286 -0.92,0.528 -0.253,0.241 -0.446,0.549 -0.581,0.925 -0.134,0.375 -0.202,0.832 -0.202,1.37 v 6.499 h -1.779 v 0.949 h 1.779 v 2.301 l 2.135,0.356 V 7.733 h 3.084 V 6.784 h -3.084 v -6.76 c 0,-0.324 0.03,-0.589 0.09,-0.795 0.059,-0.205 0.144,-0.368 0.255,-0.486 0.11,-0.119 0.241,-0.2 0.391,-0.244 0.15,-0.043 0.32,-0.065 0.51,-0.065 0.253,0 0.47,0.038 0.652,0.113 0.182,0.075 0.342,0.19 0.481,0.344 0.138,0.154 0.256,0.346 0.355,0.576 0.099,0.229 0.192,0.493 0.279,0.794 0.15,-0.024 0.297,-0.055 0.439,-0.095 C -0.272,0.127 -0.134,0.071 0,0"
             style="fill:#ffffff;fill-opacity:1;fill-rule:nonzero;stroke:none"
             id="path64" />
        </g>
        <g
           id="g66"
           transform="translate(610.6316,177.1213)">
          <path
             d="M 0,0 H -1.72 V 0.949 H 2.135 V -8.208 H 3.914 V -9.156 H 0 v 1.518 h -0.047 c -0.348,-0.633 -0.78,-1.099 -1.294,-1.4 -0.514,-0.3 -1.178,-0.451 -1.992,-0.451 -1.131,0 -1.971,0.275 -2.52,0.825 -0.55,0.549 -0.825,1.35 -0.825,2.402 V 0 h -1.719 v 0.949 h 3.854 v -7.567 c 0,-0.641 0.148,-1.101 0.445,-1.382 0.296,-0.281 0.722,-0.421 1.275,-0.421 0.388,0 0.753,0.073 1.097,0.219 0.344,0.146 0.645,0.386 0.902,0.718 0.256,0.332 0.458,0.767 0.604,1.305 0.146,0.538 0.22,1.197 0.22,1.98 z"
             style="fill:#ffffff;fill-opacity:1;fill-rule:nonzero;stroke:none"
             id="path68" />
        </g>
        <g
           id="g70"
           transform="translate(624.519,172.9938)">
          <path
             d="m 0,0 c 0,-0.901 0.063,-1.639 0.19,-2.212 0.126,-0.573 0.305,-1.024 0.534,-1.352 0.229,-0.328 0.504,-0.554 0.824,-0.676 0.321,-0.123 0.67,-0.184 1.05,-0.184 0.601,0 1.093,0.13 1.477,0.391 0.383,0.261 0.688,0.606 0.913,1.033 0.225,0.427 0.381,0.911 0.468,1.452 0.087,0.542 0.131,1.094 0.131,1.655 0,0.807 -0.074,1.488 -0.22,2.046 C 5.221,2.71 5.017,3.159 4.756,3.499 4.495,3.839 4.185,4.084 3.825,4.235 3.465,4.385 3.072,4.46 2.645,4.46 2.266,4.46 1.914,4.401 1.589,4.282 1.265,4.163 0.985,3.94 0.747,3.612 0.51,3.283 0.327,2.831 0.196,2.254 0.066,1.676 0,0.925 0,0 M 7.722,-4.08 H 9.501 V -5.029 H 5.587 v 1.436 H 5.539 C 5.334,-3.934 5.11,-4.216 4.869,-4.442 4.628,-4.667 4.373,-4.849 4.104,-4.988 3.835,-5.126 3.555,-5.222 3.262,-5.278 2.969,-5.333 2.673,-5.361 2.372,-5.361 c -0.751,0 -1.419,0.14 -2.004,0.421 -0.585,0.281 -1.08,0.66 -1.483,1.138 -0.403,0.479 -0.71,1.039 -0.919,1.679 -0.21,0.641 -0.314,1.324 -0.314,2.052 0,0.759 0.115,1.472 0.344,2.141 0.229,0.668 0.555,1.247 0.978,1.738 0.423,0.49 0.929,0.877 1.519,1.162 0.588,0.285 1.243,0.427 1.962,0.427 0.696,0 1.305,-0.145 1.827,-0.433 C 4.804,4.675 5.223,4.27 5.539,3.748 h 0.048 v 7.508 H 3.689 v 0.949 h 4.033 z"
             style="fill:#ffffff;fill-opacity:1;fill-rule:nonzero;stroke:none"
             id="path72" />
        </g>
        <g
           id="g74"
           transform="translate(644.136,181.4149)">
          <path
             d="m 0,0 c -0.206,0 -0.394,0.033 -0.564,0.101 -0.17,0.067 -0.32,0.164 -0.451,0.291 -0.13,0.126 -0.231,0.274 -0.302,0.444 -0.071,0.17 -0.106,0.362 -0.106,0.576 0,0.205 0.037,0.395 0.112,0.569 0.075,0.174 0.176,0.324 0.303,0.451 0.126,0.126 0.276,0.225 0.45,0.296 0.174,0.071 0.36,0.107 0.558,0.107 0.198,0 0.383,-0.034 0.557,-0.101 C 0.731,2.667 0.883,2.57 1.014,2.443 1.144,2.317 1.245,2.168 1.316,1.999 1.387,1.828 1.423,1.637 1.423,1.423 1.423,1.21 1.386,1.016 1.31,0.842 1.235,0.668 1.134,0.52 1.008,0.397 0.881,0.275 0.731,0.178 0.557,0.107 0.383,0.036 0.198,0 0,0 m 1.067,-12.501 h 1.78 v -0.949 h -5.694 v 0.949 h 1.78 v 8.207 h -1.78 v 0.949 h 3.914 z"
             style="fill:#ffffff;fill-opacity:1;fill-rule:nonzero;stroke:none"
             id="path76" />
        </g>
        <g
           id="g78"
           transform="translate(656.9559,172.97)">
          <path
             d="m 0,0 c 0,-0.862 0.06,-1.577 0.178,-2.146 0.119,-0.57 0.293,-1.025 0.522,-1.365 0.229,-0.34 0.518,-0.579 0.866,-0.718 0.348,-0.138 0.755,-0.207 1.222,-0.207 0.458,0 0.865,0.071 1.221,0.214 0.356,0.142 0.653,0.385 0.89,0.729 0.237,0.344 0.416,0.806 0.539,1.388 0.123,0.581 0.184,1.311 0.184,2.188 0,0.862 -0.059,1.578 -0.178,2.147 C 5.326,2.799 5.152,3.254 4.922,3.594 4.693,3.934 4.402,4.173 4.051,4.311 3.699,4.45 3.294,4.519 2.835,4.519 2.368,4.519 1.959,4.448 1.608,4.306 1.255,4.163 0.961,3.92 0.724,3.576 0.487,3.232 0.307,2.769 0.184,2.188 0.061,1.607 0,0.878 0,0 m -2.348,-0.047 c 0,0.743 0.116,1.447 0.35,2.111 0.233,0.664 0.575,1.245 1.025,1.744 0.451,0.498 1.003,0.891 1.655,1.18 0.652,0.288 1.394,0.433 2.224,0.433 0.823,0 1.55,-0.141 2.183,-0.422 C 5.721,4.719 6.251,4.337 6.678,3.855 7.105,3.373 7.427,2.811 7.644,2.171 7.862,1.53 7.97,0.85 7.97,0.131 7.97,-0.612 7.854,-1.316 7.621,-1.98 7.387,-2.645 7.045,-3.226 6.595,-3.724 6.144,-4.222 5.593,-4.616 4.94,-4.904 4.288,-5.193 3.547,-5.337 2.716,-5.337 c -0.822,0 -1.549,0.14 -2.182,0.421 -0.633,0.281 -1.162,0.662 -1.589,1.144 -0.427,0.483 -0.75,1.044 -0.967,1.685 -0.218,0.64 -0.326,1.32 -0.326,2.04"
             style="fill:#ffffff;fill-opacity:1;fill-rule:nonzero;stroke:none"
             id="path80" />
        </g>
        <g
           id="g82"
           transform="translate(663.8115,209.7244)">
          <path
             d="m 0,0 h -7.153 c 0.042,0.268 4.161,28.654 -10.924,35.606 -4.825,2.224 -15.031,2.517 -25.837,2.829 -13.018,0.374 -26.479,0.762 -36.056,4.379 -6.609,2.496 -11.881,6.862 -16.978,11.085 -9.3,7.702 -18.088,14.978 -35.629,13.711 -30.678,-2.214 -47.544,-12.226 -59.859,-19.536 -8.224,-4.883 -14.72,-8.739 -21.642,-7.27 -1.053,0.223 -1.877,0.556 -2.675,0.877 -1.01,0.407 -2.155,0.869 -4.334,1.323 -3.588,0.747 -10.659,0.859 -16.118,0.795 0.563,-0.942 1.159,-1.947 1.749,-2.953 1.397,-2.382 2.491,-4.312 3.252,-5.737 1.333,-2.499 2.592,-4.858 0.603,-6.859 -4.307,-4.331 -8.398,-9.06 -9.159,-14.29 -0.938,-6.449 -1.007,-13.886 -1.008,-13.96 h -6.904 c 0.002,0.322 0.074,8.027 1.082,14.954 0.94,6.462 4.974,11.773 9.501,16.528 -1.51,2.866 -4.993,8.776 -8.085,13.809 l -3.074,5.003 5.866,0.251 c 0.675,0.029 16.616,0.692 23.702,-0.784 2.782,-0.58 4.358,-1.215 5.508,-1.679 0.64,-0.258 1.063,-0.428 1.526,-0.526 4.285,-0.909 9.487,2.179 16.687,6.453 12.178,7.229 30.582,18.154 62.885,20.485 20.312,1.466 31.052,-7.431 40.528,-15.28 4.876,-4.039 9.482,-7.853 15.015,-9.943 8.494,-3.208 21.947,-3.595 33.816,-3.937 12.031,-0.347 22.421,-0.646 28.527,-3.46 C 4.633,32.739 0.205,1.304 0,0"
             style="fill:#ffffff;fill-opacity:1;fill-rule:nonzero;stroke:none"
             id="path84" />
        </g>
        <path
           d="M 664.726,194.391 H 414.43 v 6.986 h 250.296 z"
           style="fill:#ffffff;fill-opacity:1;fill-rule:nonzero;stroke:none"
           id="path86" />
        <g
           id="g88"
           transform="translate(460.7233,239.3311)">
          <path
             d="m 0,0 1.847,-3.942 9.762,-1.066 -7.6,13.372 -12.499,-3.848 -8.964,3.428 -6.957,0.614 5.574,-9.59 -6.843,-5.24 5.534,-8.648 18.831,-1.579 -2.697,-5.982 -20.087,-0.57 0.226,3.275 -5.798,9.249 c 0,0 -1.586,-2.316 -1.876,-3.746 -0.789,-3.897 -0.789,-15.334 -0.789,-15.334 l 33.874,-0.004 9.454,17.987 -22.649,3.203 -2.081,2.334 z"
             style="fill:#e30613;fill-opacity:1;fill-rule:nonzero;stroke:none"
             id="path90" />
        </g>
        <g
           id="g92"
           transform="translate(525.6204,244.939)">
          <path
             d="m 0,0 2.301,25.093 -25.913,-3.497 -19.75,-10.203 9.907,-17.959 22.6,-7.484 -4.273,-13.871 -13.897,-0.113 4.088,9.861 -8.945,4.122 -8.643,-21.164 H -3.62 l 2.989,27.796 -25.041,9.43 -3.18,6.257 8.321,5.915 12.438,1.807 -0.751,-12.796 z"
             style="fill:#ffffff;fill-opacity:1;fill-rule:nonzero;stroke:none"
             id="path94" />
        </g>
        <g
           id="g96"
           transform="translate(535.1089,274.4445)">
          <path
             d="M 0,0 -6.649,-64.72 H 4.888 l 2.517,27.829 6.752,8.529 -2.401,-36.358 h 10.377 l 4.505,47.813 -10.989,7.819 -8.151,-13.338 1.65,20.506 z"
             style="fill:#ffffff;fill-opacity:1;fill-rule:nonzero;stroke:none"
             id="path98" />
        </g>
        <g
           id="g100"
           transform="translate(568.1821,253.0051)">
          <path
             d="M 0,0 -4.236,-43.281 H 6.43 l 3.144,38.319 z"
             style="fill:#ffffff;fill-opacity:1;fill-rule:nonzero;stroke:none"
             id="path102" />
        </g>
        <g
           id="g104"
           transform="translate(583.9103,245.34)">
          <path
             d="M 0,0 -2.894,-35.616 H 7.194 l 2.15,16.74 8.993,7.87 -2.312,-24.61 h 9.956 l 2.988,32.749 -9.896,0.637 -9.544,-7.548 0.193,8.281 z"
             style="fill:#ffffff;fill-opacity:1;fill-rule:nonzero;stroke:none"
             id="path106" />
        </g>
        <g
           id="g108"
           transform="translate(636.6592,234.4549)">
          <path
             d="m 0,0 c 3.096,-1.507 4.727,-4.848 4.727,-4.848 l -16.361,-1.92 0.854,8.145 c 0,0 6.952,0.487 10.78,-1.377 m 5.943,-15.305 -0.536,-2.196 -17.721,-0.956 0.438,5.15 25.362,3.13 c 0,0 -0.144,9.953 -8.405,15.302 -6.047,3.915 -23.255,2.631 -23.255,2.631 l -2.547,-32.486 c 0,0 29.554,-0.163 31.045,0.129 3.279,0.642 3.198,10.121 3.198,10.121 z"
             style="fill:#ffffff;fill-opacity:1;fill-rule:nonzero;stroke:none"
             id="path110" />
        </g>
        <g
           id="g112"
           transform="translate(482.6666,222.2281)">
          <path
             d="m 0,0 -8.096,0.108 3.955,8.476 -3.867,9.146 6.728,4.117 6.268,-10.433 z"
             style="fill:#ffffff;fill-opacity:1;fill-rule:nonzero;stroke:none"
             id="path114" />
        </g>
      </g>
    </g>
  </g>
</svg>
