<?xml version="1.0" encoding="UTF-8" standalone="no"?>

<svg
   version="1.1"
   id="svg2"
   width="1867.4532"
   height="813.81067"
   viewBox="0 0 1867.4532 813.81067"
   sodipodi:docname="White background rgb.ai"
   xmlns:inkscape="http://www.inkscape.org/namespaces/inkscape"
   xmlns:sodipodi="http://sodipodi.sourceforge.net/DTD/sodipodi-0.dtd"
   xmlns="http://www.w3.org/2000/svg"
   xmlns:svg="http://www.w3.org/2000/svg">
  <defs
     id="defs6">
    <clipPath
       clipPathUnits="userSpaceOnUse"
       id="clipPath18">
      <path
         d="M 0,610.358 H 1400.589 V 0 H 0 Z"
         id="path16" />
    </clipPath>
  </defs>
  <sodipodi:namedview
     id="namedview4"
     pagecolor="#ffffff"
     bordercolor="#000000"
     borderopacity="0.25"
     inkscape:showpageshadow="2"
     inkscape:pageopacity="0.0"
     inkscape:pagecheckerboard="0"
     inkscape:deskcolor="#d1d1d1" />
  <g
     id="g8"
     inkscape:groupmode="layer"
     inkscape:label="White background rgb"
     transform="matrix(1.3333333,0,0,-1.3333333,0,813.81067)">
    <path
       d="M 0,0 H 1400.164 V 610.357 H 0 Z"
       style="fill:#efefef;fill-opacity:1;fill-rule:nonzero;stroke:none"
       id="path10" />
    <g
       id="g12">
      <g
         id="g14"
         clip-path="url(#clipPath18)">
        <g
           id="g20"
           transform="translate(505.3914,226.4407)">
          <path
             d="M 0,0 C 0,-1.424 0.1,-2.589 0.3,-3.496 0.5,-4.401 0.781,-5.113 1.144,-5.632 1.506,-6.15 1.941,-6.507 2.446,-6.7 c 0.507,-0.194 1.059,-0.291 1.659,-0.291 0.95,0 1.727,0.206 2.334,0.619 0.605,0.412 1.087,0.956 1.442,1.631 0.357,0.674 0.603,1.439 0.741,2.295 0.137,0.856 0.206,1.728 0.206,2.615 0,1.275 -0.116,2.352 -0.347,3.233 C 8.25,4.283 7.929,4.992 7.516,5.53 7.104,6.067 6.613,6.454 6.045,6.692 5.476,6.929 4.855,7.047 4.18,7.047 3.58,7.047 3.024,6.954 2.512,6.767 1.999,6.579 1.556,6.225 1.181,5.707 0.806,5.188 0.516,4.473 0.309,3.561 0.104,2.649 0,1.462 0,0 m 12.202,-6.447 h 2.811 v -1.5 H 8.828 v 2.268 H 8.753 C 8.428,-6.216 8.075,-6.663 7.694,-7.019 7.312,-7.375 6.91,-7.662 6.485,-7.882 6.06,-8.1 5.617,-8.253 5.155,-8.34 4.692,-8.427 4.223,-8.472 3.749,-8.472 c -1.188,0 -2.243,0.222 -3.168,0.665 -0.924,0.445 -1.706,1.044 -2.343,1.8 -0.637,0.756 -1.121,1.64 -1.452,2.653 -0.332,1.012 -0.497,2.092 -0.497,3.242 0,1.199 0.182,2.327 0.544,3.383 0.362,1.055 0.878,1.971 1.546,2.746 0.668,0.775 1.468,1.387 2.4,1.837 0.93,0.449 1.964,0.674 3.101,0.674 1.1,0 2.062,-0.228 2.887,-0.684 C 7.591,7.387 8.253,6.747 8.753,5.923 H 8.828 V 17.787 H 5.829 v 1.5 h 6.373 z"
             style="fill:#454545;fill-opacity:1;fill-rule:nonzero;stroke:none"
             id="path22" />
        </g>
        <g
           id="g24"
           transform="translate(543.7186,228.5773)">
          <path
             d="M 0,0 C -0.037,1.037 -0.147,1.877 -0.328,2.521 -0.509,3.164 -0.75,3.668 -1.05,4.03 -1.349,4.393 -1.703,4.639 -2.109,4.77 -2.515,4.901 -2.961,4.967 -3.449,4.967 -3.961,4.967 -4.44,4.892 -4.883,4.742 -5.327,4.592 -5.723,4.33 -6.073,3.955 -6.422,3.58 -6.714,3.074 -6.944,2.437 -7.176,1.799 -7.335,0.987 -7.422,0 Z m 3.542,-5.004 c -0.4,-1.812 -1.175,-3.199 -2.324,-4.161 -1.15,-0.962 -2.642,-1.443 -4.479,-1.443 -1.262,0 -2.387,0.222 -3.374,0.665 -0.987,0.444 -1.824,1.047 -2.511,1.809 -0.688,0.762 -1.212,1.652 -1.575,2.671 -0.362,1.018 -0.544,2.102 -0.544,3.251 0,1.175 0.188,2.287 0.562,3.337 0.375,1.049 0.91,1.961 1.604,2.736 0.693,0.775 1.523,1.39 2.492,1.846 0.968,0.456 2.052,0.685 3.252,0.685 1.099,0 2.086,-0.194 2.961,-0.582 C 0.481,5.423 1.225,4.883 1.837,4.189 2.449,3.496 2.92,2.668 3.252,1.706 3.582,0.744 3.761,-0.312 3.786,-1.462 H -7.516 c -0.013,-0.212 -0.018,-0.353 -0.018,-0.422 v -0.121 c 0,-1.474 0.108,-2.674 0.327,-3.599 0.218,-0.924 0.525,-1.646 0.919,-2.165 0.393,-0.518 0.862,-0.871 1.405,-1.058 0.544,-0.188 1.147,-0.282 1.809,-0.282 0.612,0 1.19,0.082 1.734,0.244 0.543,0.163 1.033,0.421 1.471,0.778 0.437,0.355 0.822,0.818 1.153,1.387 0.331,0.568 0.596,1.252 0.796,2.052 0.25,-0.025 0.5,-0.068 0.75,-0.131 0.25,-0.062 0.487,-0.137 0.712,-0.225"
             style="fill:#454545;fill-opacity:1;fill-rule:nonzero;stroke:none"
             id="path26" />
        </g>
        <g
           id="g28"
           transform="translate(571.8498,222.2423)">
          <path
             d="m 0,0 c -0.337,-1.462 -0.894,-2.539 -1.669,-3.233 -0.774,-0.693 -1.842,-1.04 -3.204,-1.04 -0.712,0 -1.353,0.087 -1.921,0.262 -0.569,0.175 -1.053,0.453 -1.453,0.834 -0.4,0.381 -0.706,0.868 -0.919,1.462 -0.212,0.593 -0.318,1.315 -0.318,2.165 v 10.271 h -2.811 v 1.499 h 2.811 v 3.636 l 3.374,0.563 V 12.22 h 4.873 V 10.721 H -6.11 V 0.037 c 0,-0.512 0.046,-0.93 0.14,-1.255 0.093,-0.325 0.228,-0.581 0.403,-0.769 0.175,-0.187 0.382,-0.315 0.619,-0.384 0.237,-0.068 0.505,-0.103 0.805,-0.103 0.4,0 0.744,0.06 1.032,0.178 0.287,0.119 0.54,0.3 0.758,0.544 0.219,0.243 0.407,0.547 0.562,0.909 0.157,0.362 0.304,0.781 0.442,1.255 0.237,-0.037 0.468,-0.087 0.693,-0.15 C -0.432,0.2 -0.212,0.112 0,0"
             style="fill:#454545;fill-opacity:1;fill-rule:nonzero;stroke:none"
             id="path30" />
        </g>
        <g
           id="g32"
           transform="translate(593.4576,226.2158)">
          <path
             d="m 0,0 c -1.362,-0.037 -2.462,-0.14 -3.299,-0.309 -0.837,-0.169 -1.487,-0.406 -1.949,-0.713 -0.462,-0.305 -0.775,-0.677 -0.937,-1.115 -0.162,-0.437 -0.243,-0.937 -0.243,-1.499 0,-0.975 0.203,-1.702 0.608,-2.184 0.407,-0.48 0.966,-0.721 1.678,-0.721 0.388,0 0.821,0.081 1.303,0.243 0.48,0.163 0.934,0.428 1.359,0.797 0.425,0.368 0.777,0.853 1.058,1.453 C -0.14,-3.449 0,-2.705 0,-1.818 Z M 6.017,-7.722 C 5.492,-7.822 5.005,-7.884 4.555,-7.909 4.105,-7.934 3.749,-7.947 3.486,-7.947 c -0.662,0 -1.209,0.054 -1.64,0.16 -0.431,0.105 -0.771,0.259 -1.021,0.459 -0.25,0.2 -0.431,0.443 -0.543,0.731 C 0.169,-6.31 0.1,-5.991 0.075,-5.641 h -0.093 c -0.35,-0.487 -0.725,-0.9 -1.125,-1.237 -0.4,-0.337 -0.819,-0.607 -1.256,-0.806 -0.437,-0.2 -0.884,-0.344 -1.34,-0.431 -0.456,-0.088 -0.915,-0.132 -1.377,-0.132 -0.762,0 -1.444,0.103 -2.044,0.31 -0.599,0.205 -1.105,0.497 -1.517,0.872 -0.413,0.374 -0.725,0.82 -0.938,1.339 -0.212,0.518 -0.319,1.09 -0.319,1.715 0,1.737 0.853,3.058 2.559,3.964 1.705,0.906 4.164,1.391 7.375,1.453 0.013,0.562 0.022,1.068 0.028,1.518 0.007,0.45 0.009,0.894 0.009,1.331 0,1.137 -0.234,1.933 -0.702,2.389 -0.469,0.456 -1.209,0.685 -2.221,0.685 -0.675,0 -1.278,-0.075 -1.809,-0.225 -0.531,-0.15 -0.965,-0.35 -1.303,-0.6 0.3,-0.287 0.522,-0.591 0.665,-0.909 0.145,-0.319 0.217,-0.634 0.217,-0.947 0,-0.525 -0.169,-0.962 -0.507,-1.312 -0.337,-0.35 -0.799,-0.525 -1.387,-0.525 -0.25,0 -0.493,0.038 -0.73,0.113 -0.238,0.075 -0.444,0.194 -0.619,0.356 -0.175,0.163 -0.315,0.366 -0.422,0.609 -0.106,0.244 -0.159,0.528 -0.159,0.853 0,0.513 0.141,1.009 0.421,1.49 0.282,0.481 0.7,0.909 1.256,1.284 0.556,0.375 1.25,0.675 2.08,0.9 0.832,0.225 1.804,0.337 2.916,0.337 0.899,0 1.695,-0.087 2.389,-0.262 C 0.815,8.316 1.402,8.025 1.884,7.619 2.364,7.213 2.727,6.672 2.971,5.998 3.214,5.323 3.336,4.486 3.336,3.486 3.336,3.236 3.333,2.827 3.327,2.259 3.321,1.69 3.311,1.062 3.299,0.375 3.286,-0.312 3.277,-1.009 3.271,-1.715 3.264,-2.421 3.261,-3.042 3.261,-3.579 c 0,-0.55 0.013,-1.01 0.038,-1.379 0.025,-0.368 0.087,-0.662 0.187,-0.88 0.1,-0.219 0.25,-0.375 0.45,-0.469 0.2,-0.093 0.481,-0.14 0.844,-0.14 0.312,0 0.725,0.037 1.237,0.112 z"
             style="fill:#454545;fill-opacity:1;fill-rule:nonzero;stroke:none"
             id="path34" />
        </g>
        <g
           id="g36"
           transform="translate(615.3662,239.7479)">
          <path
             d="m 0,0 c -0.325,0 -0.622,0.053 -0.891,0.16 -0.268,0.105 -0.506,0.259 -0.712,0.459 -0.206,0.2 -0.365,0.433 -0.478,0.703 -0.112,0.268 -0.168,0.571 -0.168,0.909 0,0.325 0.059,0.625 0.178,0.899 0.118,0.275 0.277,0.513 0.477,0.713 0.2,0.2 0.438,0.355 0.713,0.468 C -0.607,4.423 -0.312,4.48 0,4.48 0.312,4.48 0.606,4.426 0.88,4.32 1.155,4.214 1.396,4.061 1.602,3.861 1.808,3.661 1.968,3.427 2.08,3.158 2.192,2.889 2.249,2.586 2.249,2.249 2.249,1.912 2.19,1.606 2.07,1.331 1.952,1.056 1.793,0.822 1.593,0.628 1.393,0.434 1.155,0.282 0.88,0.169 0.606,0.057 0.312,0 0,0 m 1.687,-19.755 h 2.811 v -1.499 h -8.996 v 1.499 h 2.811 v 12.97 h -2.811 v 1.5 h 6.185 z"
             style="fill:#454545;fill-opacity:1;fill-rule:nonzero;stroke:none"
             id="path38" />
        </g>
        <g
           id="g40"
           transform="translate(637.4431,219.9932)">
          <path
             d="M 0,0 H 2.811 V -1.499 H -6.185 V 0 h 2.811 v 24.235 h -2.811 v 1.499 H 0 Z"
             style="fill:#454545;fill-opacity:1;fill-rule:nonzero;stroke:none"
             id="path42" />
        </g>
        <g
           id="g44"
           transform="translate(656.2405,239.7479)">
          <path
             d="m 0,0 c -0.325,0 -0.622,0.053 -0.891,0.16 -0.268,0.105 -0.506,0.259 -0.712,0.459 -0.206,0.2 -0.365,0.433 -0.478,0.703 -0.112,0.268 -0.168,0.571 -0.168,0.909 0,0.325 0.059,0.625 0.178,0.899 0.118,0.275 0.277,0.513 0.477,0.713 0.2,0.2 0.438,0.355 0.713,0.468 C -0.607,4.423 -0.312,4.48 0,4.48 0.312,4.48 0.606,4.426 0.88,4.32 1.155,4.214 1.396,4.061 1.602,3.861 1.808,3.661 1.967,3.427 2.08,3.158 2.192,2.889 2.249,2.586 2.249,2.249 2.249,1.912 2.19,1.606 2.07,1.331 1.952,1.056 1.793,0.822 1.593,0.628 1.393,0.434 1.155,0.282 0.88,0.169 0.606,0.057 0.312,0 0,0 m 1.687,-19.755 h 2.811 v -1.499 h -8.996 v 1.499 h 2.811 v 12.97 h -2.811 v 1.5 h 6.185 z"
             style="fill:#454545;fill-opacity:1;fill-rule:nonzero;stroke:none"
             id="path46" />
        </g>
        <g
           id="g48"
           transform="translate(678.4105,219.9932)">
          <path
             d="M 0,0 H 2.531 V -1.499 H -6.185 V 0 h 2.811 v 12.97 h -2.811 v 1.499 H 0 v -2.717 h 0.075 c 0.512,1.037 1.2,1.833 2.062,2.39 0.862,0.555 1.974,0.834 3.336,0.834 1.712,0 2.986,-0.441 3.823,-1.322 0.838,-0.881 1.257,-2.139 1.257,-3.776 V 0 H 13.27 V -1.499 H 4.648 V 0 h 2.531 v 10.403 c 0,0.987 -0.232,1.714 -0.694,2.182 -0.462,0.469 -1.112,0.704 -1.949,0.704 -0.638,0 -1.231,-0.135 -1.78,-0.404 C 2.206,12.617 1.727,12.202 1.322,11.64 0.915,11.077 0.594,10.358 0.357,9.484 0.119,8.609 0,7.572 0,6.372 Z"
             style="fill:#454545;fill-opacity:1;fill-rule:nonzero;stroke:none"
             id="path50" />
        </g>
        <g
           id="g52"
           transform="translate(714.0388,228.784)">
          <path
             d="m 0,0 c 0,0.887 -0.047,1.64 -0.14,2.258 -0.094,0.619 -0.257,1.119 -0.488,1.499 -0.231,0.382 -0.544,0.66 -0.937,0.834 -0.394,0.175 -0.896,0.263 -1.509,0.263 -0.612,0 -1.119,-0.088 -1.518,-0.263 C -4.992,4.417 -5.313,4.132 -5.557,3.739 -5.801,3.345 -5.973,2.83 -6.073,2.192 c -0.1,-0.637 -0.15,-1.412 -0.15,-2.324 0,-0.899 0.048,-1.659 0.141,-2.277 0.094,-0.619 0.259,-1.121 0.497,-1.509 0.237,-0.387 0.552,-0.665 0.946,-0.834 0.394,-0.168 0.891,-0.253 1.49,-0.253 0.613,0 1.121,0.088 1.528,0.263 0.405,0.175 0.727,0.462 0.965,0.862 0.237,0.4 0.406,0.915 0.506,1.546 C -0.05,-1.703 0,-0.925 0,0 m -7.797,-14.339 c -0.212,-0.349 -0.369,-0.687 -0.469,-1.012 -0.1,-0.325 -0.15,-0.643 -0.15,-0.955 0,-0.5 0.125,-0.944 0.375,-1.331 0.25,-0.388 0.6,-0.712 1.05,-0.975 0.449,-0.262 0.984,-0.459 1.603,-0.59 0.618,-0.132 1.295,-0.197 2.033,-0.197 1.012,0 1.914,0.119 2.708,0.357 0.793,0.237 1.465,0.568 2.015,0.992 0.55,0.425 0.969,0.919 1.256,1.482 0.287,0.562 0.431,1.174 0.431,1.836 0,0.538 -0.097,0.975 -0.291,1.312 -0.194,0.338 -0.465,0.6 -0.815,0.787 -0.35,0.188 -0.766,0.316 -1.246,0.384 -0.482,0.069 -1.01,0.104 -1.584,0.104 -0.413,0 -0.875,-0.003 -1.387,-0.01 -0.513,-0.006 -1.006,-0.015 -1.48,-0.028 -0.475,-0.012 -0.9,-0.022 -1.275,-0.029 -0.375,-0.005 -0.637,-0.008 -0.787,-0.008 -0.712,0 -1.328,0.087 -1.847,0.262 -0.519,0.175 -0.952,0.418 -1.302,0.731 -0.35,0.312 -0.609,0.681 -0.778,1.106 -0.169,0.425 -0.253,0.88 -0.253,1.368 0,0.674 0.15,1.374 0.45,2.099 0.299,0.725 0.787,1.462 1.461,2.212 -0.524,0.562 -0.924,1.209 -1.199,1.939 -0.275,0.732 -0.412,1.509 -0.412,2.334 0,0.862 0.15,1.677 0.449,2.446 0.3,0.768 0.735,1.443 1.304,2.024 0.568,0.581 1.268,1.04 2.099,1.378 0.83,0.337 1.777,0.506 2.839,0.506 0.975,0 1.843,-0.144 2.605,-0.432 0.762,-0.287 1.419,-0.68 1.968,-1.18 0.35,0.363 0.691,0.662 1.022,0.9 0.331,0.237 0.64,0.421 0.928,0.553 0.287,0.13 0.555,0.222 0.805,0.272 0.25,0.05 0.475,0.074 0.675,0.074 0.312,0 0.581,-0.047 0.806,-0.141 C 6.035,6.138 6.219,6.013 6.363,5.856 6.506,5.701 6.613,5.526 6.682,5.332 6.75,5.138 6.785,4.941 6.785,4.741 6.785,4.342 6.656,3.982 6.4,3.664 6.144,3.345 5.785,3.186 5.323,3.186 4.961,3.186 4.62,3.304 4.301,3.542 3.983,3.779 3.773,4.129 3.674,4.591 3.424,4.492 3.189,4.369 2.971,4.226 2.752,4.082 2.536,3.917 2.324,3.729 2.699,3.205 2.982,2.63 3.177,2.005 3.37,1.38 3.467,0.725 3.467,0.037 c 0,-0.862 -0.15,-1.681 -0.45,-2.455 -0.3,-0.775 -0.737,-1.453 -1.312,-2.034 -0.575,-0.581 -1.274,-1.04 -2.099,-1.377 -0.825,-0.338 -1.768,-0.506 -2.83,-0.506 -0.749,0 -1.437,0.087 -2.061,0.262 -0.625,0.175 -1.187,0.419 -1.687,0.731 -0.313,-0.412 -0.553,-0.803 -0.722,-1.172 -0.168,-0.368 -0.253,-0.715 -0.253,-1.04 0,-0.4 0.178,-0.73 0.535,-0.993 0.355,-0.262 0.965,-0.394 1.827,-0.394 0.137,0 0.422,0.003 0.852,0.01 0.432,0.006 0.91,0.012 1.434,0.018 0.525,0.007 1.04,0.013 1.547,0.019 0.505,0.006 0.896,0.01 1.171,0.01 0.887,0 1.702,-0.079 2.446,-0.234 0.743,-0.157 1.38,-0.422 1.911,-0.797 0.531,-0.375 0.947,-0.868 1.247,-1.48 0.3,-0.613 0.45,-1.375 0.45,-2.287 0,-1.112 -0.225,-2.112 -0.675,-2.999 -0.45,-0.887 -1.077,-1.643 -1.884,-2.268 -0.805,-0.625 -1.762,-1.103 -2.867,-1.434 -1.106,-0.331 -2.315,-0.496 -3.627,-0.496 -1.15,0 -2.165,0.121 -3.045,0.365 -0.882,0.243 -1.622,0.565 -2.221,0.965 -0.6,0.4 -1.057,0.859 -1.369,1.377 -0.313,0.519 -0.468,1.06 -0.468,1.622 0,0.537 0.14,1.056 0.422,1.556 0.28,0.5 0.708,0.968 1.283,1.405 0.237,-0.1 0.444,-0.208 0.619,-0.328 0.175,-0.118 0.362,-0.259 0.562,-0.422"
             style="fill:#454545;fill-opacity:1;fill-rule:nonzero;stroke:none"
             id="path54" />
        </g>
        <g
           id="g56"
           transform="translate(762.1851,229.1588)">
          <path
             d="m 0,0 c -0.062,0.812 -0.197,1.499 -0.403,2.062 -0.206,0.562 -0.484,1.018 -0.834,1.367 -0.35,0.35 -0.772,0.603 -1.265,0.76 -0.494,0.155 -1.059,0.234 -1.696,0.234 -0.488,0 -0.937,-0.047 -1.35,-0.141 C -5.96,4.189 -6.317,4.045 -6.617,3.851 -6.917,3.657 -7.15,3.404 -7.319,3.092 -7.487,2.78 -7.572,2.405 -7.572,1.967 c 0,-0.437 0.078,-0.796 0.235,-1.077 0.155,-0.282 0.412,-0.531 0.767,-0.75 0.357,-0.219 0.813,-0.427 1.369,-0.627 0.556,-0.2 1.24,-0.438 2.052,-0.713 0.65,-0.224 1.293,-0.462 1.93,-0.712 0.638,-0.25 1.209,-0.562 1.716,-0.937 0.506,-0.375 0.915,-0.828 1.227,-1.359 0.313,-0.531 0.468,-1.177 0.468,-1.94 0,-0.862 -0.193,-1.611 -0.58,-2.249 -0.387,-0.637 -0.9,-1.162 -1.537,-1.574 -0.637,-0.412 -1.362,-0.719 -2.174,-0.919 -0.812,-0.2 -1.644,-0.3 -2.493,-0.3 -0.45,0 -0.928,0.025 -1.434,0.075 -0.506,0.05 -1.006,0.119 -1.499,0.207 -0.494,0.087 -0.963,0.19 -1.406,0.308 -0.444,0.12 -0.834,0.242 -1.172,0.367 l -0.13,5.435 h 1.292 c 0.063,-0.95 0.197,-1.747 0.404,-2.391 0.206,-0.643 0.493,-1.158 0.862,-1.545 0.368,-0.387 0.818,-0.662 1.35,-0.825 0.53,-0.162 1.152,-0.244 1.864,-0.244 0.538,0 1.034,0.047 1.49,0.14 0.456,0.095 0.853,0.245 1.19,0.45 0.337,0.207 0.603,0.479 0.797,0.816 0.193,0.338 0.29,0.743 0.29,1.218 0,0.412 -0.075,0.753 -0.225,1.022 -0.15,0.268 -0.387,0.509 -0.712,0.722 -0.325,0.212 -0.743,0.412 -1.255,0.599 -0.513,0.188 -1.125,0.406 -1.837,0.656 -0.712,0.25 -1.397,0.509 -2.052,0.777 -0.657,0.27 -1.234,0.594 -1.734,0.975 -0.5,0.382 -0.9,0.841 -1.2,1.378 -0.3,0.538 -0.449,1.193 -0.449,1.968 0,0.85 0.174,1.584 0.524,2.202 0.35,0.619 0.815,1.128 1.397,1.528 0.58,0.4 1.248,0.693 2.005,0.881 0.755,0.187 1.54,0.281 2.352,0.281 0.412,0 0.844,-0.022 1.294,-0.066 C -2.137,5.701 -1.691,5.641 -1.247,5.566 -0.804,5.491 -0.379,5.407 0.028,5.313 0.433,5.219 0.805,5.129 1.143,5.041 L 1.275,0 Z"
             style="fill:#454545;fill-opacity:1;fill-rule:nonzero;stroke:none"
             id="path58" />
        </g>
        <g
           id="g60"
           transform="translate(788.2537,222.2423)">
          <path
             d="m 0,0 c -0.337,-1.462 -0.893,-2.539 -1.668,-3.233 -0.774,-0.693 -1.843,-1.04 -3.205,-1.04 -0.712,0 -1.352,0.087 -1.92,0.262 -0.569,0.175 -1.054,0.453 -1.454,0.834 -0.4,0.381 -0.705,0.868 -0.918,1.462 -0.212,0.593 -0.319,1.315 -0.319,2.165 v 10.271 h -2.811 v 1.499 h 2.811 v 3.636 l 3.374,0.563 V 12.22 h 4.873 V 10.721 H -6.11 V 0.037 c 0,-0.512 0.047,-0.93 0.141,-1.255 0.093,-0.325 0.228,-0.581 0.403,-0.769 0.175,-0.187 0.381,-0.315 0.618,-0.384 0.237,-0.068 0.506,-0.103 0.806,-0.103 0.4,0 0.743,0.06 1.031,0.178 0.287,0.119 0.54,0.3 0.759,0.544 0.218,0.243 0.406,0.547 0.562,0.909 0.156,0.362 0.303,0.781 0.441,1.255 C -1.112,0.375 -0.88,0.325 -0.656,0.262 -0.431,0.2 -0.212,0.112 0,0"
             style="fill:#454545;fill-opacity:1;fill-rule:nonzero;stroke:none"
             id="path62" />
        </g>
        <g
           id="g64"
           transform="translate(812.2615,232.9631)">
          <path
             d="M 0,0 H -2.718 V 1.499 H 3.374 V -12.97 h 2.811 v -1.499 H 0 v 2.399 h -0.075 c -0.55,-1 -1.231,-1.737 -2.043,-2.212 -0.813,-0.475 -1.862,-0.712 -3.149,-0.712 -1.787,0 -3.114,0.434 -3.982,1.302 -0.869,0.869 -1.304,2.134 -1.304,3.796 V 0 h -2.717 v 1.499 h 6.091 v -11.957 c 0,-1.012 0.235,-1.74 0.704,-2.184 0.468,-0.443 1.14,-0.665 2.014,-0.665 0.613,0 1.19,0.115 1.734,0.347 0.543,0.23 1.018,0.609 1.425,1.134 0.405,0.525 0.723,1.212 0.955,2.062 C -0.116,-8.915 0,-7.872 0,-6.635 Z"
             style="fill:#454545;fill-opacity:1;fill-rule:nonzero;stroke:none"
             id="path66" />
        </g>
        <g
           id="g68"
           transform="translate(834.2067,226.4407)">
          <path
             d="M 0,0 C 0,-1.424 0.1,-2.589 0.3,-3.496 0.5,-4.401 0.781,-5.113 1.144,-5.632 1.506,-6.15 1.941,-6.507 2.446,-6.7 c 0.507,-0.194 1.059,-0.291 1.659,-0.291 0.95,0 1.727,0.206 2.334,0.619 0.605,0.412 1.087,0.956 1.443,1.631 0.356,0.674 0.602,1.439 0.74,2.295 0.137,0.856 0.206,1.728 0.206,2.615 0,1.275 -0.116,2.352 -0.347,3.233 C 8.25,4.283 7.929,4.992 7.516,5.53 7.104,6.067 6.613,6.454 6.045,6.692 5.476,6.929 4.855,7.047 4.18,7.047 3.58,7.047 3.024,6.954 2.512,6.767 1.999,6.579 1.556,6.225 1.181,5.707 0.806,5.188 0.516,4.473 0.31,3.561 0.104,2.649 0,1.462 0,0 m 12.202,-6.447 h 2.811 v -1.5 H 8.828 v 2.268 H 8.753 C 8.428,-6.216 8.075,-6.663 7.694,-7.019 7.312,-7.375 6.91,-7.662 6.485,-7.882 6.06,-8.1 5.617,-8.253 5.155,-8.34 4.692,-8.427 4.223,-8.472 3.749,-8.472 c -1.187,0 -2.243,0.222 -3.168,0.665 -0.924,0.445 -1.706,1.044 -2.343,1.8 -0.637,0.756 -1.121,1.64 -1.452,2.653 -0.332,1.012 -0.497,2.092 -0.497,3.242 0,1.199 0.182,2.327 0.544,3.383 0.362,1.055 0.878,1.971 1.547,2.746 0.667,0.775 1.467,1.387 2.399,1.837 0.93,0.449 1.964,0.674 3.101,0.674 1.1,0 2.062,-0.228 2.887,-0.684 C 7.591,7.387 8.253,6.747 8.753,5.923 H 8.828 V 17.787 H 5.829 v 1.5 h 6.373 z"
             style="fill:#454545;fill-opacity:1;fill-rule:nonzero;stroke:none"
             id="path70" />
        </g>
        <g
           id="g72"
           transform="translate(865.2059,239.7479)">
          <path
             d="m 0,0 c -0.325,0 -0.622,0.053 -0.891,0.16 -0.268,0.105 -0.506,0.259 -0.712,0.459 -0.206,0.2 -0.365,0.433 -0.478,0.703 -0.112,0.268 -0.168,0.571 -0.168,0.909 0,0.325 0.059,0.625 0.178,0.899 0.118,0.275 0.277,0.513 0.477,0.713 0.2,0.2 0.438,0.355 0.713,0.468 C -0.606,4.423 -0.312,4.48 0,4.48 0.312,4.48 0.606,4.426 0.88,4.32 1.155,4.214 1.396,4.061 1.602,3.861 1.808,3.661 1.968,3.427 2.08,3.158 2.192,2.889 2.249,2.586 2.249,2.249 2.249,1.912 2.19,1.606 2.07,1.331 1.952,1.056 1.793,0.822 1.593,0.628 1.393,0.434 1.155,0.282 0.88,0.169 0.606,0.057 0.312,0 0,0 m 1.687,-19.755 h 2.811 v -1.499 h -8.996 v 1.499 h 2.811 v 12.97 h -2.811 v 1.5 h 6.185 z"
             style="fill:#454545;fill-opacity:1;fill-rule:nonzero;stroke:none"
             id="path74" />
        </g>
        <g
           id="g76"
           transform="translate(885.4643,226.4032)">
          <path
             d="m 0,0 c 0,-1.362 0.094,-2.492 0.282,-3.392 0.187,-0.9 0.462,-1.619 0.824,-2.156 0.363,-0.537 0.818,-0.915 1.368,-1.134 0.55,-0.218 1.194,-0.328 1.931,-0.328 0.725,0 1.368,0.113 1.93,0.338 0.562,0.225 1.031,0.609 1.406,1.152 0.375,0.544 0.659,1.275 0.853,2.193 0.193,0.918 0.29,2.072 0.29,3.459 0,1.362 -0.093,2.492 -0.281,3.392 C 8.416,4.423 8.141,5.142 7.779,5.679 7.416,6.217 6.957,6.595 6.401,6.813 5.845,7.032 5.205,7.141 4.48,7.141 3.743,7.141 3.096,7.029 2.54,6.804 1.984,6.579 1.519,6.195 1.144,5.651 0.769,5.108 0.484,4.376 0.291,3.458 0.097,2.539 0,1.387 0,0 m -3.711,-0.075 c 0,1.175 0.185,2.287 0.554,3.336 0.368,1.05 0.908,1.969 1.62,2.756 0.712,0.787 1.584,1.408 2.615,1.865 1.031,0.455 2.202,0.684 3.514,0.684 1.3,0 2.449,-0.222 3.449,-0.666 1,-0.443 1.837,-1.046 2.512,-1.808 C 11.227,5.33 11.736,4.442 12.08,3.43 12.423,2.418 12.595,1.344 12.595,0.207 12.595,-0.968 12.41,-2.08 12.042,-3.13 11.673,-4.179 11.133,-5.098 10.421,-5.885 9.709,-6.672 8.838,-7.294 7.807,-7.75 6.776,-8.205 5.605,-8.434 4.293,-8.434 c -1.3,0 -2.449,0.222 -3.449,0.665 -1,0.444 -1.837,1.047 -2.512,1.809 -0.674,0.762 -1.184,1.649 -1.527,2.661 -0.344,1.012 -0.516,2.087 -0.516,3.224"
             style="fill:#454545;fill-opacity:1;fill-rule:nonzero;stroke:none"
             id="path78" />
        </g>
        <g
           id="g80"
           transform="translate(896.2977,284.4833)">
          <path
             d="m 0,0 h -11.303 c 0.066,0.424 6.574,45.28 -17.262,56.265 -7.625,3.514 -23.754,3.979 -40.829,4.47 -20.571,0.593 -41.842,1.205 -56.976,6.921 -10.445,3.944 -18.775,10.844 -26.83,17.516 -14.695,12.172 -28.583,23.669 -56.301,21.667 -48.478,-3.498 -75.13,-19.32 -94.591,-30.872 -12.995,-7.715 -23.261,-13.81 -34.2,-11.488 -1.663,0.353 -2.965,0.879 -4.226,1.386 -1.596,0.644 -3.405,1.373 -6.85,2.091 -5.669,1.181 -16.842,1.357 -25.469,1.256 0.889,-1.488 1.832,-3.076 2.764,-4.666 2.208,-3.764 3.936,-6.814 5.138,-9.066 2.107,-3.948 4.097,-7.677 0.954,-10.838 -6.807,-6.845 -13.271,-14.318 -14.474,-22.581 C -381.937,11.869 -382.046,0.118 -382.047,0 h -10.911 c 0.004,0.509 0.118,12.684 1.71,23.631 1.486,10.211 7.86,18.604 15.015,26.117 -2.387,4.53 -7.891,13.869 -12.777,21.821 l -4.858,7.906 9.27,0.398 c 1.067,0.045 26.256,1.093 37.455,-1.24 4.396,-0.916 6.885,-1.919 8.703,-2.652 1.012,-0.408 1.68,-0.677 2.412,-0.832 6.771,-1.436 14.992,3.443 26.369,10.197 19.244,11.423 48.327,28.688 99.373,32.371 32.097,2.316 49.068,-11.742 64.043,-24.145 7.705,-6.383 14.984,-12.411 23.727,-15.713 13.423,-5.069 34.681,-5.681 53.436,-6.221 C -50.068,71.09 -33.649,70.617 -24,66.17 7.322,51.735 0.324,2.06 0,0"
             style="fill:#454545;fill-opacity:1;fill-rule:nonzero;stroke:none"
             id="path82" />
        </g>
        <path
           d="M 897.743,260.254 H 502.219 v 11.04 h 395.524 z"
           style="fill:#454545;fill-opacity:1;fill-rule:nonzero;stroke:none"
           id="path84" />
        <g
           id="g86"
           transform="translate(575.3728,331.2686)">
          <path
             d="m 0,0 2.918,-6.229 15.428,-1.685 -12.01,21.131 -19.753,-6.08 -14.164,5.416 -10.994,0.97 8.808,-15.153 -10.814,-8.282 8.746,-13.664 29.757,-2.496 -4.262,-9.452 -31.742,-0.902 0.357,5.176 -9.162,14.616 c 0,0 -2.506,-3.661 -2.964,-5.921 -1.248,-6.158 -1.248,-24.23 -1.248,-24.23 l 53.53,-0.007 14.939,28.423 -35.79,5.063 -3.289,3.688 z"
             style="fill:#c11819;fill-opacity:1;fill-rule:nonzero;stroke:none"
             id="path88" />
        </g>
        <g
           id="g90"
           transform="translate(677.9247,340.1303)">
          <path
             d="m 0,0 3.636,39.652 -40.948,-5.526 -31.21,-16.123 15.656,-28.378 35.712,-11.827 -6.752,-21.919 -21.96,-0.179 6.459,15.582 -14.134,6.514 -13.658,-33.443 H -5.72 l 4.723,43.924 -39.57,14.9 -5.025,9.888 13.149,9.348 19.655,2.855 -1.188,-20.221 z"
             style="fill:#454545;fill-opacity:1;fill-rule:nonzero;stroke:none"
             id="path92" />
        </g>
        <g
           id="g94"
           transform="translate(692.9188,386.7556)">
          <path
             d="M 0,0 -10.506,-102.272 H 7.725 l 3.976,43.976 10.671,13.477 -3.795,-57.453 h 16.397 l 7.12,75.555 -17.365,12.357 -12.88,-21.078 2.607,32.404 z"
             style="fill:#454545;fill-opacity:1;fill-rule:nonzero;stroke:none"
             id="path96" />
        </g>
        <g
           id="g98"
           transform="translate(745.1819,352.8765)">
          <path
             d="m 0,0 -6.693,-68.393 h 16.854 l 4.968,60.552 z"
             style="fill:#454545;fill-opacity:1;fill-rule:nonzero;stroke:none"
             id="path100" />
        </g>
        <g
           id="g102"
           transform="translate(770.0358,340.7639)">
          <path
             d="m 0,0 -4.573,-56.281 h 15.942 l 3.397,26.453 14.211,12.437 -3.654,-38.89 H 41.056 L 45.777,-4.53 30.14,-3.524 15.058,-15.451 15.364,-2.365 Z"
             style="fill:#454545;fill-opacity:1;fill-rule:nonzero;stroke:none"
             id="path104" />
        </g>
        <g
           id="g106"
           transform="translate(853.3911,323.563)">
          <path
             d="m 0,0 c 4.892,-2.382 7.47,-7.66 7.47,-7.66 l -25.855,-3.036 1.35,12.872 c 0,0 10.986,0.769 17.035,-2.176 m 9.392,-24.185 -0.848,-3.471 -28.003,-1.511 0.692,8.138 40.077,4.948 c 0,0 -0.227,15.727 -13.281,24.179 -9.556,6.187 -36.747,4.158 -36.747,4.158 l -4.026,-51.336 c 0,0 46.703,-0.256 49.058,0.205 5.182,1.014 5.054,15.994 5.054,15.994 z"
             style="fill:#454545;fill-opacity:1;fill-rule:nonzero;stroke:none"
             id="path108" />
        </g>
        <g
           id="g110"
           transform="translate(610.0482,304.2419)">
          <path
             d="m 0,0 -12.794,0.171 6.25,13.393 -6.11,14.454 10.631,6.505 9.906,-16.486 z"
             style="fill:#454545;fill-opacity:1;fill-rule:nonzero;stroke:none"
             id="path112" />
        </g>
      </g>
    </g>
  </g>
</svg>
